<svg width="128" height="128" viewBox="0 0 128 128" xmlns="http://www.w3.org/2000/svg">
  <g fill-rule="nonzero" fill="none">
    <path d="M29.115 105.824v-5.634a3.343 3.343 0 0 0-3.531-3.569 3.474 3.474 0 0 0-3.155 1.597 3.296 3.296 0 0 0-2.968-1.597 2.967 2.967 0 0 0-2.63 1.334v-1.108H14.88v8.977h1.972v-4.94a2.103 2.103 0 0 1 2.197-2.385c1.296 0 1.953.846 1.953 2.367v4.996h1.972v-4.977a2.113 2.113 0 0 1 2.198-2.386c1.333 0 1.972.846 1.972 2.367v4.996l1.972-.038zm29.176-8.977h-3.212v-2.723h-1.972v2.723h-1.784v1.784h1.822v4.132c0 2.084.807 3.324 3.117 3.324a4.583 4.583 0 0 0 2.442-.695l-.564-1.671a3.606 3.606 0 0 1-1.727.507c-.94 0-1.296-.601-1.296-1.503v-4.094h3.192l-.018-1.784zm16.658-.226a2.648 2.648 0 0 0-2.366 1.315v-1.09h-1.935v8.978h1.954v-5.033c0-1.484.638-2.31 1.878-2.31.417-.006.832.07 1.22.225l.601-1.878a4.179 4.179 0 0 0-1.39-.244l.038.037zm-25.185.94a6.714 6.714 0 0 0-3.662-.94c-2.273 0-3.756 1.09-3.756 2.874 0 1.465 1.089 2.366 3.099 2.648l.939.131c1.07.15 1.577.432 1.577.94 0 .694-.714 1.089-2.047 1.089a4.78 4.78 0 0 1-2.986-.94l-.94 1.522a6.48 6.48 0 0 0 3.888 1.164c2.592 0 4.095-1.22 4.095-2.93 0-1.709-1.183-2.403-3.137-2.685l-.939-.132c-.845-.112-1.521-.281-1.521-.882s.639-1.052 1.71-1.052c.989.011 1.958.277 2.816.77l.864-1.578zm52.314-.94a2.648 2.648 0 0 0-2.366 1.315v-1.09h-1.935v8.978h1.954v-5.033c0-1.484.638-2.31 1.878-2.31.417-.006.832.07 1.22.225l.601-1.878a4.179 4.179 0 0 0-1.39-.244l.038.037zm-25.166 4.696a4.536 4.536 0 0 0 4.789 4.695 4.695 4.695 0 0 0 3.23-1.07l-.939-1.578a3.944 3.944 0 0 1-2.347.807 2.883 2.883 0 0 1 0-5.747c.849.01 1.672.293 2.347.808l.94-1.578a4.695 4.695 0 0 0-3.231-1.07 4.536 4.536 0 0 0-4.79 4.695v.038zm18.292 0v-4.47h-1.953v1.089a3.409 3.409 0 0 0-2.817-1.315 4.695 4.695 0 0 0 0 9.39 3.409 3.409 0 0 0 2.817-1.314v1.09h1.953v-4.47zm-7.268 0a2.714 2.714 0 1 1 2.723 2.873 2.695 2.695 0 0 1-2.723-2.873zm-23.57-4.696a4.696 4.696 0 0 0 .132 9.39 5.456 5.456 0 0 0 3.728-1.22l-.94-1.446a4.273 4.273 0 0 1-2.61.939 2.488 2.488 0 0 1-2.686-2.197h6.668v-.752c0-2.817-1.747-4.695-4.264-4.695l-.028-.019zm0 1.747a2.226 2.226 0 0 1 2.273 2.179h-4.696a2.31 2.31 0 0 1 2.386-2.179h.037zm48.934 2.967v-8.094h-1.878v4.695a3.409 3.409 0 0 0-2.817-1.315 4.695 4.695 0 0 0 0 9.39 3.409 3.409 0 0 0 2.817-1.314v1.09h1.878v-4.452zm3.258 3.184a.939.939 0 0 1 .357.065.939.939 0 0 1 .291.188.873.873 0 0 1-.291 1.446.883.883 0 0 1-.357.076.939.939 0 0 1-.845-.545.883.883 0 0 1 0-.695.939.939 0 0 1 .197-.282.939.939 0 0 1 .291-.188.939.939 0 0 1 .385-.065h-.028zm0 1.587a.667.667 0 0 0 .488-.207.695.695 0 0 0 0-.939.676.676 0 0 0-.76-.15.686.686 0 0 0-.225.15.695.695 0 0 0 0 .94.695.695 0 0 0 .225.15c.095.04.197.06.3.056h-.028zm.057-1.118a.376.376 0 0 1 .244.075c.058.049.09.122.084.198a.225.225 0 0 1-.066.169.329.329 0 0 1-.197.084l.273.31h-.216l-.254-.31h-.084v.31h-.179v-.826l.395-.01zm-.207.16v.225h.207a.197.197 0 0 0 .112 0 .094.094 0 0 0 0-.084.094.094 0 0 0 0-.085.197.197 0 0 0-.112 0l-.207-.056zm-10.33-3.813a2.714 2.714 0 1 1 2.724 2.874 2.695 2.695 0 0 1-2.724-2.874zm-65.948 0v-4.488h-1.954v1.089a3.409 3.409 0 0 0-2.817-1.315 4.695 4.695 0 0 0 0 9.39 3.409 3.409 0 0 0 2.817-1.314v1.09h1.954v-4.452zm-7.269 0a2.714 2.714 0 1 1 2.724 2.874 2.695 2.695 0 0 1-2.742-2.874h.018z" fill="#231F20"/>
    <path fill="#FF5F00" d="M49.116 28.437h29.58v53.159h-29.58z"/>
    <path d="M50.994 55.022a33.75 33.75 0 0 1 12.912-26.584c-13.86-10.893-33.765-9.307-45.724 3.644-11.96 12.951-11.96 32.919 0 45.87 11.96 12.95 31.864 14.538 45.724 3.645a33.75 33.75 0 0 1-12.912-26.575z" fill="#EB001B"/>
    <path d="M118.605 55.022a33.805 33.805 0 0 1-54.699 26.575 33.806 33.806 0 0 0 0-53.16 33.806 33.806 0 0 1 54.7 26.575v.01zM115.375 75.962v-1.089h.441v-.225H114.7v.225h.479v1.09h.197zm2.17 0v-1.314h-.339l-.394.939-.395-.94h-.3v1.315h.244v-.986l.366.855h.254l.366-.855v.996l.197-.01z" fill="#F79E1B"/>
  </g>
</svg>
